<svg xmlns="http://www.w3.org/2000/svg" width="160" height="68" viewBox="0 0 160 68"><defs><style>.a{fill:#fff;}</style></defs><path class="a" d="M988.421,1597.137H978.026v-16.615h10.022v2.761H981.2v4.1h5.526v2.767H981.2v4.214h7.214Zm-34.051-31.183h1.061a1.269,1.269,0,0,1,2.465,0h1.09V1564.8h-4.615Zm10.961,4.116h-7.362l-.772.914h8.915Zm-6.661-1.607h-4.012c.747.893,1.64,1.959,2.013,2.394.262-.332.828-1.009,2-2.394Zm-13.329,1.609h-7.365l-.771.914h8.915Zm9.994,0h-7.362l-.772.914h8.913Zm-.964-2.288h4.615v-1.177H957.9a1.268,1.268,0,0,1-2.47,0h-1.061Zm12.337,3.887H926.676v6.933h40.031Zm-22.332-5.715h1.061a1.269,1.269,0,0,1,2.465,0h1.089V1564.8h-4.615Zm-19.989,0h1.061a1.27,1.27,0,0,1,2.466,0H929V1564.8h-4.615Zm0,1.832H929v-1.177h-1.087a1.267,1.267,0,0,1-2.469,0h-1.061Zm4.3.68h-4.012c.748.893,1.64,1.959,2.013,2.394.262-.337.827-1.014,2-2.4Zm5.7-2.507h1.061a1.269,1.269,0,0,1,2.465,0H939V1564.8h-4.615Zm9.994,1.832h4.615v-1.177H947.9a1.267,1.267,0,0,1-2.469,0h-1.061Zm-9.994,0h4.615v-1.177h-1.087a1.267,1.267,0,0,1-2.469,0h-1.061Zm-7.172,3.2h8.915l-.779-.917h-7.363Zm21.464-2.52h-4.012c.748.893,1.64,1.959,2.012,2.394.264-.341.83-1.018,2-2.4Zm45.846,26.255a4.855,4.855,0,0,1-3.143-1.266l-.088-.087-1.447,2.226.054.058a6.757,6.757,0,0,0,4.649,1.766c2.713,0,4.608-1.5,4.608-3.638,0-2.347-2.1-3.191-3.79-3.87-1.044-.42-1.944-.781-1.944-1.376,0-.713.757-.964,1.4-.964a4.42,4.42,0,0,1,2.822.99l.1.092,1.177-2.356-.05-.051a5.7,5.7,0,0,0-4.025-1.371c-2.755,0-4.608,1.434-4.608,3.568,0,2.323,2.072,3.173,3.736,3.858,1.072.44,2,.819,2,1.464s-.728.949-1.45.949Zm-30.155-30.6h4.615v-.8h.654v-1.714h-.868v.735h-1.6v-.735h-.959v.735h-1.631v-.735h-.868v1.714h.653Zm-25.686,4.35h-4.012c.747.893,1.64,1.959,2.013,2.394.262-.341.828-1.018,2-2.4Zm78.5,12.338h-3.113v2.812h3.113Zm-3.111,16.336h3.135v-12h-3.135Zm23.7-4.424c0,4.1,3.5,4.539,5,4.539a5.184,5.184,0,0,0,.922-.071l.08-.017V1594.4l-.121.026a2.753,2.753,0,0,1-.51.042,1.986,1.986,0,0,1-2.236-2.122v-4.485h2.683v-2.535h-2.683v-3.4h-3.066v3.4h-1.594v2.535h1.526Zm-108.336-26.117v1.177h4.46v-1.177Zm-.873,2.779h6.2l-.783-.922h-4.64Zm29.985,0h6.2l-.784-.922h-4.638Zm.875-2.779v1.177h4.46v-1.177Zm-20.864,2.779h6.2l-.783-.922h-4.641Zm10.87-2.779v1.177h4.459v-1.177Zm-.876,2.779h6.2l-.783-.922h-4.64Zm-9.121-2.779v1.177h4.46v-1.177Zm-9.934-.651h1.2V1564.8h-1.2Zm23.146,29.884a17.876,17.876,0,0,0,2.373-.565,27.236,27.236,0,0,1,5.189-1.091c.44.324,1.408.994,1.534,1.082.645.457,2.223,1.111,2.961.205a1.109,1.109,0,0,0,.215-1.266.245.245,0,0,1,.019-.193.155.155,0,0,1,.05-.05,5.205,5.205,0,0,1,.692.368c.466.251.565.322.6.394-.035.1-.056.11-.25.138a1.164,1.164,0,0,0-.341.087.923.923,0,0,0-.495.647,1.511,1.511,0,0,0,.112,1.073.676.676,0,0,0,.081.085c-.2.313-.377.579-.431.651a3.774,3.774,0,0,0-.313.531,1.843,1.843,0,0,1-.913.944,11.113,11.113,0,0,1-3.719.667,50.48,50.48,0,0,1-7.369-.675l-.016.011,2.845,1.791-.978,1.492-3.007-1.86s-.868-.525-1.248-.771a2.46,2.46,0,0,1-.515.52c-.306.193-.537.358-.88.224a.919.919,0,0,1-.421-.345.875.875,0,0,1-.193-.016,1.421,1.421,0,0,1-.951-.591h-.053a.928.928,0,0,1-.7-.4,1.184,1.184,0,0,1-.179-.422c-.046-.01-.1-.019-.142-.026a.883.883,0,0,1-.708-.687.591.591,0,0,1,.235-.675.632.632,0,0,1-.1-.476c-.042-.026-.072-.047-.072-.047l-3.6-2.328-2.025,2.921a22.862,22.862,0,0,1-2.514-1.7c0-.163,2-2.923,2-2.923l-.349-.567.842-1.216.619.163,1.756-2.514,3.164-1.46.812.65-3.279,5.262,3.81,2.411a1.994,1.994,0,0,1,.858-.55,9.525,9.525,0,0,1,1.137-.12c1.823-.236,2.638-.186,3.864,1.22Zm-9.952-6.874c.181-.1,1.64-.805,2.623-1.27l.391.3.242-.312-.583-.453-.109.053c-2.759,1.311-2.808,1.359-2.839,1.389s-.067.067-4.62,6.735l.326.222c1.218-1.776,4.343-6.346,4.578-6.67Zm3.911,6.484-3.79-2.4-.23.336,3.729,2.348Zm4.782,3.4,3.454,2.176.236-.315-3.2-1.994Zm103.79,10.566c0,1.868-1,3.877-3.206,3.877-1.226,0-1.727-.667-1.727-2.3v-7.082H1047.1v7.683c0,3.043,1.41,4.585,4.193,4.585a4.674,4.674,0,0,0,4.006-2.18c-.009.133-.014.289-.014.462v1.441h3.02v-11.99h-3.136Zm8.025-17.792a4.828,4.828,0,0,1,.2-1.543,3.165,3.165,0,0,1,3.073-2.334c1.258,0,1.773.667,1.773,2.3v7.082h3.113v-7.679c0-3.043-1.411-4.585-4.191-4.585a4.669,4.669,0,0,0-4.1,2.2c.008-.133.013-.289.013-.46v-1.464h-3.02v11.99h3.136Zm5.254,12.006a4.673,4.673,0,0,0-4.1,2.2c.009-.131.016-.289.016-.46v-1.463h-3.023v11.99h3.135v-5.511a4.829,4.829,0,0,1,.2-1.543,3.162,3.162,0,0,1,3.072-2.335c1.259,0,1.774.667,1.774,2.3v7.081h3.112v-7.684c0-3.038-1.409-4.581-4.192-4.581ZM927.11,1601.1h23.237l-.173,2.248a12.522,12.522,0,0,0-4.234,1.745,2.237,2.237,0,0,0-.843,2.662,3.6,3.6,0,0,0,1.993,1.771,2,2,0,0,0,.617.1v1.053H949.9v4.147a3.24,3.24,0,0,1-1.254.222,5.658,5.658,0,0,1-4.313-1.4c-1.012-.812-2.059-1.653-5.271-1.639a6.414,6.414,0,0,0-4.617,1.766,5.431,5.431,0,0,1-2.114,1.236,1.755,1.755,0,0,1-.442.055v-.1h0v-4.3h1.814v-1.027c.078.025,2.99-.431,2.967-2.2a2.455,2.455,0,0,0-1.312-2.452c-2.011-.927-8.448-2.876-8.816-3.1-.323-.182-.587-.786.565-.79Zm22.993.23H927.071s-.386-.028-.4.193.4.269.4.269h23Zm17.389-20.87h2.165V1620.8c0,2.9-1.049,4.891-3.121,5.918-.932.461-1.534.622-4.613.622h-12.1a2.438,2.438,0,0,0-1.207.458,17.487,17.487,0,0,0-1.471,1.358l-.427.442-.423-.445c-.391-.406-1.6-1.329-1.6-1.329a2.511,2.511,0,0,0-1.082-.482H932.346a14.924,14.924,0,0,1-5.133-.528l-.057-.02c-2.088-.887-3.386-3.2-3.386-6.036l.006-40.29h2.163v-1.2H967.49Zm-16.812,1.157v0H924.988v31.142a3.317,3.317,0,0,1,2.238,1.274,5.035,5.035,0,0,0,4.21,2.051,4.819,4.819,0,0,0,.482-.016l.444-.051a4.661,4.661,0,0,0,2.431-1.329,5.953,5.953,0,0,1,4.39-1.766c3.054-.016,4.051.823,5.015,1.64a5.227,5.227,0,0,0,4.1,1.4,5.53,5.53,0,0,0,1.195-.122l.442-.125a5.614,5.614,0,0,0,1.959-1.273,4.705,4.705,0,0,1,3.456-1.516c2.77,0,3.7.863,4.515,1.626a4.1,4.1,0,0,0,3.407,1.3,3.917,3.917,0,0,0,3.472-1.447,3.962,3.962,0,0,1,1.761-1.244V1581.62H950.678Zm133.05,8.041v7.475h-2.9v-1.071c0-.169,0-.326.014-.457a3.855,3.855,0,0,1-.645.759,4.13,4.13,0,0,1-2.852,1.046,3.771,3.771,0,0,1-4.086-3.427c-.01-.116-.014-.232-.014-.348,0-3.568,4.436-4.1,7.081-4.1h.294v-.062c0-1.316-.729-1.982-2.166-1.982a6.246,6.246,0,0,0-3.183,1.114l-.1.068-1.2-2.28.066-.051a8.134,8.134,0,0,1,4.686-1.478c3.183,0,5.005,1.751,5.005,4.8Zm-3.086,2.088h-.408c-1.748,0-3.831.3-3.831,1.75a1.477,1.477,0,0,0,1.514,1.44,1.363,1.363,0,0,0,.166-.013c1.466,0,2.559-1.585,2.559-3Zm-125.525-6.859c.608-.029.744-.255.764-.579.009-.129.012-.172.23-.239.257-.078.56-.105.906.569.549,1.061.331,1.245.227,1.332-.247.2-.328.165-.506.077a.868.868,0,0,0-1.1.172c-.691.579-.009,1.756.4,2.46l.13.228c.289.519,1.039,1.747,1.848,1.945a.882.882,0,0,0,.716-.121c.445-.289.471-.51.457-.745-.006-.11-.01-.193.214-.386.11-.1.341-.3,1.157.482s.6,1.006.378,1.254c-.109.122-.177.113-.346.089a.772.772,0,0,0-.88.406c-.454.716.214,1.388.909,1.9v.017c.386.28,1.146.812,1.472,1.037.521.369,1.726.853,2.166.317.259-.319.211-.49.142-.635a.819.819,0,0,1,.05-.767.684.684,0,0,1,.591-.323c.08.009.193-.007.923.431a3.925,3.925,0,0,1,.717.433.633.633,0,0,1,.165.683.771.771,0,0,1-.721.523.688.688,0,0,0-.176.038.334.334,0,0,0-.163.227,1.131,1.131,0,0,0,0,.556,1.1,1.1,0,0,0,.284.261l.019.012a4.391,4.391,0,0,0,1.588.4l.151.018h.006V1582.3h-14a3.717,3.717,0,0,0,.617,2.348.868.868,0,0,0,.662.239Zm69.186,9.547c-.68,0-1.1-.255-1.1-1.518v-12.4h-3.112v12.837c0,3.488,2.13,3.893,3.73,3.893a6.518,6.518,0,0,0,.939-.071l.084-.014v-2.762l-.11.012s-.212.022-.435.022Zm-4.98,9.193a4.715,4.715,0,0,0-4.029,2.327,3.328,3.328,0,0,0-3.484-2.327,4.515,4.515,0,0,0-3.753,2.192c.008-.13.013-.284.013-.451v-1.463h-3.02v11.99h3.135v-5.279a6.105,6.105,0,0,1,.138-1.479c.4-1.646,1.447-2.628,2.791-2.628,1.241,0,1.5.9,1.5,2.258v7.128h3.136v-5.279a6.251,6.251,0,0,1,.137-1.5,3,3,0,0,1,2.746-2.6c1.26,0,1.518.9,1.518,2.258v7.128h3.136v-7.684c-.007-3.039-1.34-4.582-3.968-4.582Zm15.786-9.856c0-2.347-2.1-3.193-3.79-3.87-1.043-.419-1.943-.781-1.943-1.378,0-.712.755-.964,1.4-.964a4.427,4.427,0,0,1,2.822.99l.1.092,1.177-2.355-.047-.051a5.708,5.708,0,0,0-4.026-1.371c-2.755,0-4.608,1.434-4.608,3.568,0,2.323,2.072,3.173,3.736,3.858,1.073.44,2,.819,2,1.464,0,.665-.728.964-1.447.964a4.881,4.881,0,0,1-3.144-1.265l-.086-.088-1.447,2.227.054.056a6.761,6.761,0,0,0,4.649,1.765c2.7,0,4.595-1.5,4.595-3.638Zm-70.453-25.314c.747.893,1.64,1.959,2.012,2.394.264-.332.829-1.009,2-2.394Zm89.358,26.773c-.009.133-.014.289-.014.464v1.441h3.02v-11.991h-3.136v5.509c0,1.867-1,3.878-3.207,3.878-1.226,0-1.724-.667-1.724-2.3v-7.082h-3.136v7.684c0,3.044,1.41,4.586,4.191,4.586A4.675,4.675,0,0,0,1054.016,1595.233Zm-51.13,14.672a6.594,6.594,0,1,1-6.905-6.266c.1,0,.205-.008.308-.008a6.287,6.287,0,0,1,6.591,5.968c0,.1.008.2.008.307Zm-3.183,0a3.392,3.392,0,1,0,0,.151c0-.05,0-.1,0-.151Zm-10.9-5.995h-3.5l-2.845,4.158h-1.3v-8.776h-3.131v16.614h3.135v-5.156h1.37l3.093,5.111.029.049h3.615l-4.263-6.6Zm20.1-6.823.029.049h3.615l-4.263-6.6,3.81-5.395h-3.506l-2.842,4.161h-1.3v-8.786h-3.134v16.615h3.134v-5.156h1.37Zm-49.42-31.134h1.2V1564.8h-1.2Zm-5.117-1.841h4.615v-.8h.654V1561.6h-.868v.735h-1.6v-.735h-.959v.735h-1.629v-.735h-.868v1.714h.653Zm-.529.675h-1.223v1.157h1.223Zm15.142,0h-4.615v1.157h1.061a1.269,1.269,0,0,1,2.465,0h1.09Zm0,1.812h-1.09a1.268,1.268,0,0,1-2.47,0h-1.061v1.177h4.615Zm-5.144-1.814h-1.223v1.157h1.223Zm-14.347,1.168h1.2V1564.8h-1.2Zm90.937,37.679a4.713,4.713,0,0,0-4.029,2.327,3.331,3.331,0,0,0-3.484-2.327,4.516,4.516,0,0,0-3.753,2.192c.009-.13.016-.285.016-.451v-1.463h-3.022v11.99h3.135v-5.279a6.1,6.1,0,0,1,.138-1.479c.405-1.646,1.447-2.628,2.8-2.628,1.24,0,1.494.9,1.494,2.259v7.128h3.129v-5.279a6.393,6.393,0,0,1,.135-1.5,3,3,0,0,1,2.747-2.6c1.26,0,1.519.9,1.519,2.259v7.128h3.135v-7.684c0-3.041-1.328-4.584-3.956-4.584Zm-96.057-39.521h4.619v-.8h.654V1561.6h-.868v.735h-1.6v-.735h-.96v.735h-1.631v-.735h-.868v1.714h.653Zm-9.994,0h4.615v-.8h.654V1561.6h-.868v.735h-1.6v-.735h-.96v.735h-1.631v-.735h-.868v1.714h.653Zm-9.994,0H929v-.8h.654V1561.6h-.868v.735h-1.6v-.735h-.954v.735H924.6v-.735h-.868v1.714h.654Zm9.466.675h-1.222v1.157h1.222Zm5.646,1.162h1.2v-1.157h-1.2Zm4.349-1.162h-1.218v1.157h1.223Z" transform="translate(-923.73 -1561.596)"/></svg>