<svg width="32" height="32" viewBox="0 0 32 32" fill="none" xmlns="http://www.w3.org/2000/svg">
<g clip-path="url(#clip0_47_56594)">
<path d="M25 10.375C25 13.067 20.97 15.25 16 15.25C11.03 15.25 7 13.067 7 10.375C7 7.683 11.03 5.5 16 5.5C20.97 5.5 25 7.683 25 10.375Z" fill="#2E3842"/>
<path d="M16 16.7498C18.685 16.7498 21.19 16.1638 23.078 15.1408C23.7728 14.7719 24.4116 14.3059 24.975 13.7568C24.991 13.8778 25 14.0008 25 14.1248C25 16.8168 20.97 18.9998 16 18.9998C11.03 18.9998 7 16.8168 7 14.1248C7 14.0008 7.009 13.8778 7.025 13.7568C7.58842 14.3059 8.22716 14.7719 8.922 15.1408C10.809 16.1638 13.315 16.7498 16 16.7498Z" fill="#2E3842"/>
<path d="M16 20.4998C18.685 20.4998 21.19 19.9138 23.078 18.8908C23.7729 18.5219 24.4116 18.0559 24.975 17.5068C24.991 17.6278 25 17.7508 25 17.8748C25 20.5668 20.97 22.7498 16 22.7498C11.03 22.7498 7 20.5668 7 17.8748C7 17.7508 7.009 17.6278 7.025 17.5068C7.58841 18.0559 8.22716 18.5219 8.922 18.8908C10.809 19.9138 13.315 20.4998 16 20.4998Z" fill="#2E3842"/>
<path d="M16 24.2498C18.685 24.2498 21.19 23.6638 23.078 22.6408C23.7729 22.2719 24.4116 21.8059 24.975 21.2568C24.991 21.3778 25 21.5008 25 21.6248C25 24.3168 20.97 26.4998 16 26.4998C11.03 26.4998 7 24.3168 7 21.6248C7 21.5008 7.009 21.3778 7.025 21.2568C7.58841 21.8059 8.22716 22.2719 8.922 22.6408C10.809 23.6638 13.315 24.2498 16 24.2498Z" fill="#2E3842"/>
</g>
<defs>
<clipPath id="clip0_47_56594">
<rect width="32" height="32" fill="white"/>
</clipPath>
</defs>
</svg>
