<svg width="32" height="32" viewBox="0 0 32 32" fill="none" xmlns="http://www.w3.org/2000/svg">
<path fill-rule="evenodd" clip-rule="evenodd" d="M14.9919 6C13.9904 6 13.1364 6.68 12.9715 7.60718L12.7771 8.70667C12.7552 8.82974 12.6515 8.97333 12.4527 9.06359C12.0785 9.23252 11.7185 9.42796 11.3758 9.64821C11.1945 9.76615 11.011 9.77744 10.8843 9.73333L9.77362 9.34154C9.31955 9.18178 8.81984 9.17852 8.36345 9.33235C7.90706 9.48617 7.5236 9.78709 7.28133 10.1815L6.27436 11.8195C6.032 12.2137 5.9464 12.6759 6.03279 13.1238C6.11918 13.5717 6.37197 13.9763 6.74617 14.2656L7.66358 14.9754C7.76733 15.0554 7.84925 15.2103 7.83177 15.4164C7.80065 15.8053 7.80065 16.1958 7.83177 16.5846C7.84815 16.7897 7.76733 16.9456 7.66467 17.0256L6.74617 17.7354C6.37197 18.0247 6.11918 18.4293 6.03279 18.8772C5.9464 19.3252 6.032 19.7873 6.27436 20.1815L7.28133 21.8195C7.52377 22.2138 7.9073 22.5145 8.36368 22.6681C8.82006 22.8217 9.31967 22.8183 9.77362 22.6585L10.8865 22.2667C11.0121 22.2226 11.1956 22.2349 11.378 22.3508C11.7188 22.5703 12.0781 22.7662 12.4538 22.9354C12.6525 23.0256 12.7563 23.1692 12.7781 23.2944L12.9725 24.3928C13.1375 25.32 13.9915 26 14.993 26H17.007C18.0074 26 18.8625 25.32 19.0275 24.3928L19.2219 23.2933C19.2437 23.1703 19.3464 23.0267 19.5462 22.9354C19.9219 22.7662 20.2812 22.5703 20.622 22.3508C20.8044 22.2338 20.9879 22.2226 21.1135 22.2667L22.2275 22.6585C22.6813 22.8177 23.1805 22.8206 23.6364 22.6668C24.0923 22.513 24.4754 22.2125 24.7176 21.8185L25.7256 20.1805C25.968 19.7863 26.0536 19.3241 25.9672 18.8762C25.8808 18.4283 25.628 18.0237 25.2538 17.7344L24.3364 17.0246C24.2327 16.9446 24.1508 16.7897 24.1682 16.5836C24.1993 16.1947 24.1993 15.8042 24.1682 15.4154C24.1508 15.2103 24.2327 15.0544 24.3353 14.9744L25.2527 14.2646C26.026 13.6677 26.2259 12.6338 25.7256 11.8185L24.7187 10.1805C24.4762 9.78624 24.0927 9.48554 23.6363 9.33191C23.1799 9.17828 22.6803 9.18169 22.2264 9.34154L21.1124 9.73333C20.9879 9.77744 20.8044 9.76513 20.622 9.64821C20.2797 9.42799 19.9201 9.23256 19.5462 9.06359C19.3464 8.97436 19.2437 8.83077 19.2219 8.70667L19.0264 7.60718C18.9467 7.15802 18.6999 6.74996 18.3299 6.45566C17.9599 6.16135 17.4908 5.99989 17.0059 6H14.9919ZM15.9989 19.8462C17.0851 19.8462 18.1269 19.4409 18.8949 18.7196C19.663 17.9983 20.0945 17.0201 20.0945 16C20.0945 14.9799 19.663 14.0017 18.8949 13.2804C18.1269 12.5591 17.0851 12.1538 15.9989 12.1538C14.9127 12.1538 13.871 12.5591 13.1029 13.2804C12.3348 14.0017 11.9033 14.9799 11.9033 16C11.9033 17.0201 12.3348 17.9983 13.1029 18.7196C13.871 19.4409 14.9127 19.8462 15.9989 19.8462Z" fill="#2E3842"/>
</svg>
