<svg width="32" height="32" viewBox="0 0 32 32" fill="none" xmlns="http://www.w3.org/2000/svg">
<g clip-path="url(#clip0_47_56602)">
<path d="M9.50691 8.048C9.78854 7.71932 10.138 7.45548 10.5312 7.27458C10.9244 7.09368 11.3521 7.00001 11.7849 7H20.2149C20.6477 7.00001 21.0754 7.09368 21.4687 7.27458C21.8619 7.45548 22.2113 7.71932 22.4929 8.048L24.2149 10.056C23.9784 10.0185 23.7394 9.99975 23.4999 10H8.49991C8.25691 10 8.01791 10.02 7.78491 10.056L9.50691 8.048Z" fill="#2E3842"/>
<path fill-rule="evenodd" clip-rule="evenodd" d="M5.5 14.5C5.5 13.7044 5.81607 12.9413 6.37868 12.3787C6.94129 11.8161 7.70435 11.5 8.5 11.5H23.5C24.2956 11.5 25.0587 11.8161 25.6213 12.3787C26.1839 12.9413 26.5 13.7044 26.5 14.5C26.5 15.2956 26.1839 16.0587 25.6213 16.6213C25.0587 17.1839 24.2956 17.5 23.5 17.5H8.5C7.70435 17.5 6.94129 17.1839 6.37868 16.6213C5.81607 16.0587 5.5 15.2956 5.5 14.5ZM20.5 14.5C20.5 14.6989 20.421 14.8897 20.2803 15.0303C20.1397 15.171 19.9489 15.25 19.75 15.25C19.5511 15.25 19.3603 15.171 19.2197 15.0303C19.079 14.8897 19 14.6989 19 14.5C19 14.3011 19.079 14.1103 19.2197 13.9697C19.3603 13.829 19.5511 13.75 19.75 13.75C19.9489 13.75 20.1397 13.829 20.2803 13.9697C20.421 14.1103 20.5 14.3011 20.5 14.5ZM22.75 15.25C22.9489 15.25 23.1397 15.171 23.2803 15.0303C23.421 14.8897 23.5 14.6989 23.5 14.5C23.5 14.3011 23.421 14.1103 23.2803 13.9697C23.1397 13.829 22.9489 13.75 22.75 13.75C22.5511 13.75 22.3603 13.829 22.2197 13.9697C22.079 14.1103 22 14.3011 22 14.5C22 14.6989 22.079 14.8897 22.2197 15.0303C22.3603 15.171 22.5511 15.25 22.75 15.25ZM8.5 19C7.70435 19 6.94129 19.3161 6.37868 19.8787C5.81607 20.4413 5.5 21.2044 5.5 22C5.5 22.7956 5.81607 23.5587 6.37868 24.1213C6.94129 24.6839 7.70435 25 8.5 25H23.5C24.2956 25 25.0587 24.6839 25.6213 24.1213C26.1839 23.5587 26.5 22.7956 26.5 22C26.5 21.2044 26.1839 20.4413 25.6213 19.8787C25.0587 19.3161 24.2956 19 23.5 19H8.5ZM19.75 22.75C19.9489 22.75 20.1397 22.671 20.2803 22.5303C20.421 22.3897 20.5 22.1989 20.5 22C20.5 21.8011 20.421 21.6103 20.2803 21.4697C20.1397 21.329 19.9489 21.25 19.75 21.25C19.5511 21.25 19.3603 21.329 19.2197 21.4697C19.079 21.6103 19 21.8011 19 22C19 22.1989 19.079 22.3897 19.2197 22.5303C19.3603 22.671 19.5511 22.75 19.75 22.75ZM23.5 22C23.5 22.1989 23.421 22.3897 23.2803 22.5303C23.1397 22.671 22.9489 22.75 22.75 22.75C22.5511 22.75 22.3603 22.671 22.2197 22.5303C22.079 22.3897 22 22.1989 22 22C22 21.8011 22.079 21.6103 22.2197 21.4697C22.3603 21.329 22.5511 21.25 22.75 21.25C22.9489 21.25 23.1397 21.329 23.2803 21.4697C23.421 21.6103 23.5 21.8011 23.5 22Z" fill="#2E3842"/>
</g>
<defs>
<clipPath id="clip0_47_56602">
<rect width="32" height="32" fill="white"/>
</clipPath>
</defs>
</svg>
